<?xml version="1.0" encoding="UTF-8" standalone="no"?>
<!-- Created with Inkscape (http://www.inkscape.org/) -->

<svg
   width="1127.8682"
   height="302.69446"
   viewBox="0 0 1127.8682 302.69446"
   version="1.1"
   id="svg1"
   xml:space="preserve"
   sodipodi:docname="wordmark-white.svg"
   inkscape:version="1.4.2 (ebf0e940d0, 2025-05-08)"
   xmlns:inkscape="http://www.inkscape.org/namespaces/inkscape"
   xmlns:sodipodi="http://sodipodi.sourceforge.net/DTD/sodipodi-0.dtd"
   xmlns="http://www.w3.org/2000/svg"
   xmlns:svg="http://www.w3.org/2000/svg"><sodipodi:namedview
     id="namedview1"
     pagecolor="#000000"
     bordercolor="#000000"
     borderopacity="0.25"
     inkscape:showpageshadow="2"
     inkscape:pageopacity="0.0"
     inkscape:pagecheckerboard="false"
     inkscape:deskcolor="#d1d1d1"
     inkscape:zoom="1.2164542"
     inkscape:cx="563.93408"
     inkscape:cy="151.67032"
     inkscape:window-width="1920"
     inkscape:window-height="1008"
     inkscape:window-x="0"
     inkscape:window-y="0"
     inkscape:window-maximized="1"
     inkscape:current-layer="layer1" /><defs
     id="defs1" /><g
     id="layer1"
     transform="translate(-5271.5161,-568.65296)"><path
       style="font-size:313.526px;font-family:Lexend;-inkscape-font-specification:Lexend;letter-spacing:-17.6358px;word-spacing:0px;fill:#ffffff;stroke-width:10.6884"
       d="m 5329.577,806.47535 q -53.2994,0 -82.7708,-42.63954 l 23.2009,-26.64971 q 15.3628,21.94682 29.4715,30.41202 14.1086,8.46521 33.5472,8.46521 17.871,0 30.0985,-8.15168 12.5411,-8.15168 12.5411,-21.00624 0,-14.4222 -12.2275,-23.51445 -12.2276,-9.40578 -38.5637,-14.4222 -67.0946,-13.16809 -67.0946,-66.78104 0,-17.87098 10.0328,-31.66612 10.0329,-13.79515 26.9633,-21.6333 17.2439,-8.15167 38.5637,-8.15167 51.7317,0 74.3056,38.5637 l -23.828,23.51445 q -9.4057,-15.36278 -22.5738,-23.51445 -12.8546,-8.15168 -28.8444,-8.15168 -18.1845,0 -29.4715,8.4652 -11.2869,8.15168 -11.2869,21.6333 0,13.48161 10.0328,21.94682 10.3464,8.15167 35.1149,13.16809 34.4879,7.2111 53.613,23.20092 19.1251,15.98983 19.1251,38.5637 0,31.3526 -21.6333,49.85063 -21.3198,18.49804 -58.3159,18.49804 z m 102.1313,65.84046 V 638.73894 h 32.6068 v 23.51445 q 7.5246,-10.65989 22.2603,-18.49804 15.0492,-7.83815 31.0391,-7.83815 22.2603,0 39.5042,10.97341 17.244,10.97341 27.2768,30.0985 10.0328,19.12509 10.0328,43.89364 0,24.45503 -10.0328,43.89364 -9.7193,19.12509 -26.9632,30.41202 -17.244,10.97341 -38.8772,10.97341 -15.9899,0 -30.7256,-7.2111 -14.7357,-7.21109 -23.5144,-17.24393 v 90.60902 z m 81.5168,-95.93896 q 14.4222,0 25.7091,-7.2111 11.287,-7.21109 17.871,-19.75213 6.5841,-12.54104 6.5841,-28.53087 0,-15.98983 -6.5841,-28.21734 -6.2705,-12.54104 -17.5574,-19.75214 -11.287,-7.2111 -26.0227,-7.2111 -14.7357,0 -26.0227,7.2111 -11.2869,6.89757 -17.8709,19.43861 -6.5841,12.54104 -6.5841,28.53087 0,15.98983 6.5841,28.53087 6.584,12.54104 17.8709,19.75213 11.287,7.2111 26.0227,7.2111 z m 162.0148,30.0985 q -20.3792,0 -37.3096,-11.28694 -16.6169,-11.28693 -26.6497,-30.72555 -10.0329,-19.43861 -10.0329,-43.89364 0,-24.76855 10.0329,-43.89364 10.3463,-19.43861 27.5902,-30.41202 17.5575,-10.97341 39.1908,-10.97341 18.498,0 32.6067,8.15168 14.4222,7.83815 21.9468,20.37919 v -25.08208 h 32.6067 v 164.60115 h -32.6067 v -25.39561 q -8.4652,11.91399 -24.1415,20.37919 -15.3628,8.15168 -33.2337,8.15168 z m 8.4652,-29.78497 q 14.7357,0 26.0226,-7.2111 11.287,-7.2111 17.5575,-19.75214 6.584,-12.85456 6.584,-29.15792 0,-15.98982 -6.584,-28.53086 -6.2705,-12.54104 -17.5575,-19.75214 -11.2869,-7.2111 -26.0226,-7.2111 -14.4222,0 -25.7092,7.2111 -10.9734,7.2111 -17.5574,19.75214 -6.2705,12.54104 -6.2705,28.53086 0,16.30336 6.2705,29.15792 6.584,12.54104 17.5574,19.75214 11.287,7.2111 25.7092,7.2111 z m 129.4077,26.64971 V 670.09154 h -34.1743 v -31.3526 h 34.1743 v -42.01249 h 32.2932 v 42.01249 h 38.2501 v 31.3526 h -38.2501 v 133.24855 z m 150.7281,3.13526 q -22.8874,0 -41.0719,-11.28694 -17.8709,-11.28693 -28.5308,-30.72555 -10.3464,-19.43861 -10.3464,-43.58011 0,-24.1415 10.3464,-43.58011 10.6599,-19.43862 28.5308,-30.72555 18.1845,-11.28694 41.0719,-11.28694 21.9469,0 39.8178,9.09226 18.1845,8.77872 27.5903,24.1415 l -17.871,21.94682 q -7.5246,-10.97341 -21.0062,-18.49804 -13.1681,-7.52462 -25.3956,-7.52462 -15.0492,0 -26.9632,7.52462 -11.6005,7.2111 -18.4981,20.06567 -6.8975,12.85456 -6.8975,28.84439 0,15.98983 7.2111,28.84439 7.2111,12.54104 19.125,20.06567 11.914,7.52462 26.3362,7.52462 25.3956,0 46.0883,-25.08208 l 17.871,21.94682 q -10.0328,14.10867 -28.8444,23.20092 -18.498,9.09226 -38.5637,9.09226 z m 80.1843,-3.13526 V 571.33085 h 32.2932 v 93.11722 q 8.1517,-12.22751 22.8874,-20.69272 15.0493,-8.4652 31.0391,-8.4652 56.4347,0 56.4347,67.72162 v 100.32832 h -32.2932 v -98.13364 q 0,-42.32601 -34.8014,-40.44485 -12.2275,0 -22.2604,5.32994 -9.7193,5.01641 -15.3627,13.79514 -5.6435,8.77873 -5.6435,19.75214 v 99.70127 z m 194.9349,72.11098 27.9038,-64.27283 -76.5003,-172.4393 h 37.6231 l 51.4183,121.02103 q 1.5676,3.44879 4.0758,10.97341 l 4.7029,-13.16809 42.9531,-118.82635 h 38.2501 l -67.7216,164.60115 -27.9038,72.11098 z"
       id="text5-9"
       transform="scale(1.0047096,0.99531248)"
       aria-label="Spatchy" /></g></svg>
